# Blender v3.0.0 OBJ File: 'Vr.blend'
# www.blender.org
mtllib trunk.mtl
o cube.128
v -1.312500 0.125000 -0.750000
v -1.312500 0.125000 -0.868750
v -1.312500 0.250000 -0.868750
v -1.312500 0.250000 -0.750000
v -1.812500 0.125000 -0.750000
v -1.812500 0.250000 -0.750000
v -1.812500 0.125000 -0.868750
v -1.812500 0.250000 -0.868750
v -1.250000 0.250000 0.501895
v -2.500000 0.250000 0.501895
v -2.500000 0.437500 0.501895
v -1.250000 0.437500 0.501895
v -1.250000 0.250000 0.689395
v -1.250000 0.437500 0.689395
v -2.500000 0.250000 0.689395
v -2.500000 0.437500 0.689395
v -1.312500 0.125000 -0.750000
v -2.500000 0.125000 -0.750000
v -2.500000 0.187500 -0.750000
v -1.312500 0.187500 -0.750000
v -1.312500 0.125000 0.500000
v -1.312500 0.187500 0.500000
v -2.500000 0.125000 0.500000
v -2.500000 0.187500 0.500000
v -1.375000 0.187500 -0.750000
v -1.562500 0.187500 -0.750000
v -1.562500 0.250000 -0.750000
v -1.375000 0.250000 -0.750000
v -1.375000 0.187500 0.500000
v -1.375000 0.250000 0.500000
v -1.562500 0.187500 0.500000
v -1.562500 0.250000 0.500000
v -1.562500 0.187500 0.500000
v -1.562500 0.187500 0.443750
v -1.562500 0.250000 0.443750
v -1.562500 0.250000 0.500000
v -2.500000 0.187500 0.500000
v -2.500000 0.250000 0.500000
v -2.500000 0.187500 0.443750
v -2.500000 0.250000 0.443750
v -1.562500 0.187500 -0.693750
v -1.562500 0.187500 -0.750000
v -1.562500 0.250000 -0.750000
v -1.562500 0.250000 -0.693750
v -2.500000 0.187500 -0.693750
v -2.500000 0.250000 -0.693750
v -2.500000 0.187500 -0.750000
v -2.500000 0.250000 -0.750000
v -2.187500 0.125000 0.625000
v -2.187500 0.125000 0.506250
v -2.187500 0.250000 0.506250
v -2.187500 0.250000 0.625000
v -2.500000 0.125000 0.625000
v -2.500000 0.250000 0.625000
v -2.500000 0.125000 0.506250
v -2.500000 0.250000 0.506250
v -1.250000 0.250000 -0.937500
v -2.500000 0.250000 -0.937500
v -2.500000 0.437500 -0.937500
v -1.250000 0.437500 -0.937500
v -1.250000 0.250000 -0.750000
v -1.250000 0.437500 -0.750000
v -2.500000 0.250000 -0.750000
v -2.500000 0.437500 -0.750000
v -2.187500 0.125000 -0.750000
v -2.187500 0.125000 -0.868750
v -2.187500 0.250000 -0.868750
v -2.187500 0.250000 -0.750000
v -2.500000 0.125000 -0.750000
v -2.500000 0.250000 -0.750000
v -2.500000 0.125000 -0.868750
v -2.500000 0.250000 -0.868750
v -1.312500 0.125000 0.625000
v -1.312500 0.125000 0.506250
v -1.312500 0.250000 0.506250
v -1.312500 0.250000 0.625000
v -1.812500 0.125000 0.625000
v -1.812500 0.250000 0.625000
v -1.812500 0.125000 0.506250
v -1.812500 0.250000 0.506250
vt 0.064516 0.919355
vt 0.072581 0.919355
vt 0.072581 0.935484
vt 0.064516 0.935484
vt 0.000000 0.919355
vt 0.000000 0.935484
vt 0.137097 0.919355
vt 0.145161 0.919355
vt 0.145161 0.935484
vt 0.137097 0.935484
vt 0.072581 1.000000
vt 0.064516 1.000000
vt 0.080645 0.935484
vt 0.072581 0.935484
vt 0.072581 1.000000
vt 0.080645 1.000000
vt 0.161290 0.830645
vt 0.314516 0.830645
vt 0.314516 0.838710
vt 0.161290 0.838710
vt 0.000000 0.830645
vt 0.000000 0.838710
vt 0.475806 0.830645
vt 0.629032 0.830645
vt 0.629032 0.838710
vt 0.475806 0.838710
vt 0.314516 1.000000
vt 0.161290 1.000000
vt 0.467742 0.838710
vt 0.314516 0.838710
vt 0.314516 1.000000
vt 0.467742 1.000000
vt 0.161290 0.830645
vt 0.185484 0.830645
vt 0.185484 0.838710
vt 0.161290 0.838710
vt 0.000000 0.830645
vt 0.000000 0.838710
vt 0.346774 0.830645
vt 0.370968 0.830645
vt 0.370968 0.838710
vt 0.346774 0.838710
vt 0.185484 1.000000
vt 0.161290 1.000000
vt 0.209677 0.838710
vt 0.185484 0.838710
vt 0.185484 1.000000
vt 0.209677 1.000000
vt 0.120968 0.870968
vt 0.120968 0.870968
vt 0.120968 0.879032
vt 0.120968 0.879032
vt 0.000000 0.870968
vt 0.000000 0.879032
vt 0.241935 0.870968
vt 0.241935 0.870968
vt 0.241935 0.879032
vt 0.241935 0.879032
vt 0.120968 1.000000
vt 0.120968 1.000000
vt 0.120968 0.879032
vt 0.120968 0.879032
vt 0.120968 1.000000
vt 0.120968 1.000000
vt 0.120968 0.870968
vt 0.120968 0.870968
vt 0.120968 0.879032
vt 0.120968 0.879032
vt 0.000000 0.870968
vt 0.000000 0.879032
vt 0.241935 0.870968
vt 0.241935 0.870968
vt 0.241935 0.879032
vt 0.241935 0.879032
vt 0.120968 1.000000
vt 0.120968 1.000000
vt 0.120968 0.879032
vt 0.120968 0.879032
vt 0.120968 1.000000
vt 0.120968 1.000000
vt 0.040323 0.943548
vt 0.048387 0.943548
vt 0.048387 0.959677
vt 0.040323 0.959677
vt 0.000000 0.943548
vt 0.000000 0.959677
vt 0.088710 0.943548
vt 0.096774 0.943548
vt 0.096774 0.959677
vt 0.088710 0.959677
vt 0.048387 1.000000
vt 0.040323 1.000000
vt 0.056452 0.959677
vt 0.048387 0.959677
vt 0.048387 1.000000
vt 0.056452 1.000000
vt 0.024194 0.951613
vt 0.185484 0.951613
vt 0.185484 0.975806
vt 0.024194 0.975806
vt 0.000000 0.951613
vt 0.000000 0.975806
vt 0.209677 0.951613
vt 0.370968 0.951613
vt 0.370968 0.975806
vt 0.209677 0.975806
vt 0.185484 1.000000
vt 0.024194 1.000000
vt 0.346774 0.975806
vt 0.185484 0.975806
vt 0.185484 1.000000
vt 0.346774 1.000000
vt 0.040323 0.943548
vt 0.048387 0.943548
vt 0.048387 0.959677
vt 0.040323 0.959677
vt 0.000000 0.943548
vt 0.000000 0.959677
vt 0.088710 0.943548
vt 0.096774 0.943548
vt 0.096774 0.959677
vt 0.088710 0.959677
vt 0.048387 1.000000
vt 0.040323 1.000000
vt 0.056452 0.959677
vt 0.048387 0.959677
vt 0.048387 1.000000
vt 0.056452 1.000000
vt 0.064516 0.919355
vt 0.072581 0.919355
vt 0.072581 0.935484
vt 0.064516 0.935484
vt 0.000000 0.919355
vt 0.000000 0.935484
vt 0.137097 0.919355
vt 0.145161 0.919355
vt 0.145161 0.935484
vt 0.137097 0.935484
vt 0.072581 1.000000
vt 0.064516 1.000000
vt 0.080645 0.935484
vt 0.072581 0.935484
vt 0.072581 1.000000
vt 0.080645 1.000000
vt 0.024194 0.951613
vt 0.185484 0.951613
vt 0.185484 0.975806
vt 0.024194 0.975806
vt 0.000000 0.951613
vt 0.000000 0.975806
vt 0.209677 0.951613
vt 0.370968 0.951613
vt 0.370968 0.975806
vt 0.209677 0.975806
vt 0.185484 1.000000
vt 0.024194 1.000000
vt 0.346774 0.975806
vt 0.185484 0.975806
vt 0.185484 1.000000
vt 0.346774 1.000000
vn 1.0000 0.0000 0.0000
vn 0.0000 -0.0000 1.0000
vn -1.0000 0.0000 0.0000
vn 0.0000 0.0000 -1.0000
vn 0.0000 1.0000 0.0000
vn 0.0000 -1.0000 -0.0000
usemtl none
s 1
f 1/1/1 2/2/1 3/3/1 4/4/1
f 5/5/2 1/1/2 4/4/2 6/6/2
f 7/7/3 5/8/3 6/9/3 8/10/3
f 2/2/4 7/7/4 8/10/4 3/3/4
f 8/11/5 6/12/5 4/4/5 3/3/5
f 2/13/6 1/14/6 5/15/6 7/16/6
f 17/17/4 18/18/4 19/19/4 20/20/4
f 21/21/1 17/17/1 20/20/1 22/22/1
f 23/23/2 21/24/2 22/25/2 24/26/2
f 18/18/3 23/23/3 24/26/3 19/19/3
f 24/27/5 22/28/5 20/20/5 19/19/5
f 18/29/6 17/30/6 21/31/6 23/32/6
f 25/33/4 26/34/4 27/35/4 28/36/4
f 29/37/1 25/33/1 28/36/1 30/38/1
f 31/39/2 29/40/2 30/41/2 32/42/2
f 26/34/3 31/39/3 32/42/3 27/35/3
f 32/43/5 30/44/5 28/36/5 27/35/5
f 26/45/6 25/46/6 29/47/6 31/48/6
f 33/49/1 34/50/1 35/51/1 36/52/1
f 37/53/2 33/49/2 36/52/2 38/54/2
f 39/55/3 37/56/3 38/57/3 40/58/3
f 34/50/4 39/55/4 40/58/4 35/51/4
f 40/59/5 38/60/5 36/52/5 35/51/5
f 34/61/6 33/62/6 37/63/6 39/64/6
f 41/65/1 42/66/1 43/67/1 44/68/1
f 45/69/2 41/65/2 44/68/2 46/70/2
f 47/71/3 45/72/3 46/73/3 48/74/3
f 42/66/4 47/71/4 48/74/4 43/67/4
f 48/75/5 46/76/5 44/68/5 43/67/5
f 42/77/6 41/78/6 45/79/6 47/80/6
f 49/81/1 50/82/1 51/83/1 52/84/1
f 53/85/2 49/81/2 52/84/2 54/86/2
f 55/87/3 53/88/3 54/89/3 56/90/3
f 50/82/4 55/87/4 56/90/4 51/83/4
f 56/91/5 54/92/5 52/84/5 51/83/5
f 50/93/6 49/94/6 53/95/6 55/96/6
f 57/97/4 58/98/4 59/99/4 60/100/4
f 61/101/1 57/97/1 60/100/1 62/102/1
f 63/103/2 61/104/2 62/105/2 64/106/2
f 58/98/3 63/103/3 64/106/3 59/99/3
f 64/107/5 62/108/5 60/100/5 59/99/5
f 58/109/6 57/110/6 61/111/6 63/112/6
f 65/113/1 66/114/1 67/115/1 68/116/1
f 69/117/2 65/113/2 68/116/2 70/118/2
f 71/119/3 69/120/3 70/121/3 72/122/3
f 66/114/4 71/119/4 72/122/4 67/115/4
f 72/123/5 70/124/5 68/116/5 67/115/5
f 66/125/6 65/126/6 69/127/6 71/128/6
f 73/129/1 74/130/1 75/131/1 76/132/1
f 77/133/2 73/129/2 76/132/2 78/134/2
f 79/135/3 77/136/3 78/137/3 80/138/3
f 74/130/4 79/135/4 80/138/4 75/131/4
f 80/139/5 78/140/5 76/132/5 75/131/5
f 74/141/6 73/142/6 77/143/6 79/144/6
usemtl none.005
f 9/145/4 10/146/4 11/147/4 12/148/4
f 13/149/1 9/145/1 12/148/1 14/150/1
f 15/151/2 13/152/2 14/153/2 16/154/2
f 10/146/3 15/151/3 16/154/3 11/147/3
f 16/155/5 14/156/5 12/148/5 11/147/5
f 10/157/6 9/158/6 13/159/6 15/160/6
